<?xml version="1.0" encoding="utf-8"?>
<!-- Generator: Adobe Illustrator 19.1.0, SVG Export Plug-In . SVG Version: 6.00 Build 0)  -->
<svg version="1.1" id="Layer_1" xmlns="http://www.w3.org/2000/svg" xmlns:xlink="http://www.w3.org/1999/xlink" x="0px" y="0px"
	 viewBox="-25 25 75 75" style="enable-background:new -25 25 75 75;" xml:space="preserve">
<style type="text/css">
	.st0{fill:#FAEDDF;}
	.st1{fill:#FFFFFF;}
	.st2{fill:#4D3626;}
	.st3{fill:#F7E1CA;}
	.st4{fill:#00E99F;}
	.st5{fill:#2A2929;}
</style>
<g>
	<path class="st0" d="M39,89c0-6.8-8-9.3-19.1-9.9c-2.5-6.4-1-13.9-1-13.9h-6.8H5.3c0,0,1.4,7.6-1.1,14C-6.6,80-14.5,82.9-14.5,89
		l-1.2,9.4h55.8L39,89z"/>
	<g>
		<g>
			<path class="st1" d="M0.8,47c0-1.1,4.2-2.1,9.4-2.1"/>
			<ellipse class="st1" cx="10.7" cy="39.6" rx="4.3" ry="2.2"/>
			<g>
				<ellipse class="st2" cx="13.4" cy="33.2" rx="19.3" ry="8"/>
			</g>
			<rect x="31.5" y="32.4" class="st2" width="0.7" height="12.5"/>
			<rect x="-5.8" y="32.4" class="st2" width="0.7" height="12.1"/>
			<rect x="30.9" y="40.1" class="st2" width="0.9" height="4.8"/>
			<rect x="-5.2" y="40.1" class="st2" width="0.9" height="4.4"/>
			<path class="st2" d="M-4.1,30.7h-0.2c-0.7,0-1.3,0.6-1.3,1.3v7.3c0,0.7,0.6,1.3,1.3,1.3h0.2c0.7,0,1.3-0.6,1.3-1.3v-7.4
				C-2.9,31.2-3.4,30.7-4.1,30.7z"/>
			<path class="st2" d="M31.4,31h-1.7c-0.3,0-0.5,0.2-0.5,0.5v8.8c0,0.3,0.2,0.5,0.5,0.5h1.7c0.3,0,0.5-0.2,0.5-0.5v-8.8
				C31.9,31.3,31.7,31,31.4,31z"/>
			<polygon class="st2" points="1.1,30.8 -0.7,24.9 6,26.5 			"/>
			<polygon class="st2" points="-0.5,32.2 -2.3,26.3 4.4,27.9 			"/>
			<polygon class="st2" points="28.6,35.2 25,28.5 32.6,31.7 			"/>
			<path class="st3" d="M25,35.8v25.4c0,2.2-1.8,4.1-4.1,4.1H7.5c-2.2,0-4.1-1.8-4.1-4.1V35.8c0-2.2,1.8-4.1,4.1-4.1h13.4
				C23.2,31.8,25,33.6,25,35.8z"/>
		</g>
		<ellipse class="st3" cx="3.7" cy="39" rx="6.7" ry="6.2"/>
		<ellipse class="st3" cx="1.7" cy="48.4" rx="7.1" ry="15.2"/>
		<polygon class="st2" points="-0.5,37.9 -2.3,31.2 4.4,33 		"/>
		<polygon class="st2" points="4.2,36.4 2.4,29.6 9.2,31.4 		"/>
		<path class="st3" d="M31.8,47.2c-0.2,7.3-3.7,13.2-7.7,13.2c-3.9,0-7-5.5-7-12.5c0-7.1,3.2-13.4,7.3-13.7
			C28.7,33.7,32,39.7,31.8,47.2z"/>
		<path class="st3" d="M30.3,60.9l-15.7,11c-1.5,1.1-3.6,0.7-4.7-0.8l-1.8-2.6C7,67,7.4,64.9,8.9,63.8l15.7-11
			c1.5-1.1,3.6-0.7,4.7,0.8l1.8,2.6C32.2,57.7,31.9,59.8,30.3,60.9z"/>
		<path class="st3" d="M8.6,70.5l-12-9.9c-2.1-1.7-2.5-4.6-1.2-6.5l0,0c1.3-1.8,3.9-2.2,5.9-0.8l11.6,8.1c2.7,1.9,4.1,5.5,3,8.2l0,0
			C14.8,72.4,11.4,72.8,8.6,70.5z"/>
		<path class="st3" d="M29.6,59.4h-0.5c-1.3,0-2.3-1.1-2.3-2.3V44.9c0-1.3,1.1-2.3,2.3-2.3h0.5c1.3,0,2.3,1.1,2.3,2.3V57
			C31.9,58.3,30.9,59.4,29.6,59.4z"/>
		<path class="st3" d="M-2.7,58L-2.7,58c-1.5,0-2.7-1.2-2.7-2.6V45.1c0-1.4,1.2-2.6,2.6-2.6h0.1c1.4,0,2.6,1.2,2.6,2.6v10.2
			C-0.1,56.8-1.3,58-2.7,58z"/>
	</g>
	<g>
		<path class="st4" d="M40.5,89c0-7-8.4-9.5-19.9-10.2c-1.4,3.1-4.9,5.1-8.4,5.3c-7.1,0.4-8.6-5.4-8.7-5.2
			C-8.1,79.8-16.4,82.7-16.4,89l-1.2,9.6h59.4L40.5,89z"/>
	</g>
	<path class="st2" d="M23.3,43.8h-7c-0.2,0-0.4-0.2-0.4-0.4v-1.3c0-0.2,0.2-0.4,0.4-0.4h7c0.2,0,0.4,0.2,0.4,0.4v1.3
		C23.6,43.6,23.5,43.8,23.3,43.8z"/>
	<g>
		<ellipse transform="matrix(-0.1736 -0.9848 0.9848 -0.1736 -38.6623 61.5611)" class="st1" cx="6.5" cy="47" rx="1.9" ry="3.6"/>
		
			<ellipse transform="matrix(-0.1736 -0.9848 0.9848 -0.1736 -38.5689 61.4378)" class="st2" cx="6.5" cy="46.9" rx="1.8" ry="1.7"/>
		<ellipse cx="6.6" cy="46.9" rx="1.1" ry="1.1"/>
		<ellipse transform="matrix(0.342 -0.9397 0.9397 0.342 -39.5555 37.4816)" class="st1" cx="7" cy="47" rx="0.3" ry="0.2"/>
	</g>
	<g>
		<ellipse transform="matrix(-0.1736 0.9848 -0.9848 -0.1736 69.4424 35.7379)" class="st1" cx="19.7" cy="47" rx="1.9" ry="3.6"/>
		<ellipse transform="matrix(-0.1736 0.9848 -0.9848 -0.1736 69.578 35.734)" class="st2" cx="19.8" cy="47.1" rx="1.8" ry="1.7"/>
		<ellipse cx="19.7" cy="47.1" rx="1.1" ry="1.1"/>
		<ellipse transform="matrix(-0.6428 0.766 -0.766 -0.6428 67.6336 62.2324)" class="st1" cx="19.3" cy="46.9" rx="0.3" ry="0.2"/>
	</g>
	<path class="st2" d="M23.9,43.9l2.1,0.6c0.1,0,0.2,0,0.2-0.1l0.1-0.2c0-0.1,0-0.2,0-0.3l-1.6-1.5c-0.6-0.5-1.4-0.9-1.6-0.5
		l-0.5,0.8C22.4,43.1,23.1,43.7,23.9,43.9z"/>
	<g>
		<path class="st2" d="M10.3,43.5l-7-0.6c-0.2,0-0.4-0.2-0.3-0.4l0.1-1.2c0-0.2,0.2-0.4,0.4-0.3l7,0.6c0.2,0,0.4,0.2,0.3,0.4
			l-0.1,1.2C10.7,43.3,10.5,43.5,10.3,43.5z"/>
		<path class="st2" d="M2.9,43.1l-2.2,0.4c-0.1,0-0.2,0-0.2-0.1l-0.1-0.2c0-0.1,0-0.2,0.1-0.3l1.7-1.4c0.6-0.5,1.5-0.8,1.7-0.4
			l0.4,0.8C4.4,42.4,3.6,42.9,2.9,43.1z"/>
	</g>
	<ellipse cx="12.4" cy="61.6" rx="2.9" ry="0.6"/>
	<ellipse transform="matrix(-0.342 0.9397 -0.9397 -0.342 86.3665 32.3034)" class="st3" cx="31.9" cy="46.4" rx="2.6" ry="1.8"/>
	<ellipse transform="matrix(0.342 0.9397 -0.9397 0.342 40.0981 35.4805)" class="st3" cx="-5.3" cy="46.4" rx="2.6" ry="1.8"/>
	<polygon points="10.8,65 14.2,65 14.2,65 	"/>
	<g id="Layer_1_1_">
		<g>
			
				<rect x="2.1" y="93.3" transform="matrix(0.5736 0.8192 -0.8192 0.5736 79.4538 36.3227)" class="st5" width="5.4" height="2.3"/>
			
				<rect x="2.2" y="90.2" transform="matrix(0.5736 -0.8192 0.8192 0.5736 -72.7904 42.904)" class="st5" width="5.3" height="2.4"/>
			<polygon class="st5" points="10.1,95.2 5.5,95.2 5.5,97.3 11.3,97.3 			"/>
			<polygon class="st5" points="10.2,90.6 5.4,90.6 5.4,88.5 11.4,88.5 			"/>
		</g>
		<g>
			<polygon class="st5" points="14.4,95.5 14.4,88.7 12,90.6 12,97.3 			"/>
			<polygon class="st5" points="12,94.5 17.2,90.7 17.2,93.7 12,97.3 			"/>
		</g>
		<g>
			<polygon class="st5" points="22.6,94.5 17.5,90.7 17.5,93.7 22.7,97.3 			"/>
			<polygon class="st5" points="22.7,95.5 20.3,93.7 20.3,86.8 22.7,88.3 			"/>
		</g>
	</g>
</g>
</svg>
