<?xml version="1.0" encoding="utf-8"?>
<!-- Generator: Adobe Illustrator 19.1.0, SVG Export Plug-In . SVG Version: 6.00 Build 0)  -->
<svg version="1.1" id="Layer_1" xmlns="http://www.w3.org/2000/svg" xmlns:xlink="http://www.w3.org/1999/xlink" x="0px" y="0px"
	 viewBox="0 0 75 75" style="enable-background:new 0 0 75 75;" xml:space="preserve">
<style type="text/css">
	.st0{fill:#999999;}
	.st1{fill:#00E99F;}
	.st2{fill:#FFFFFF;}
	.st3{font-family:'Campton-Bold';}
	.st4{font-size:3px;}
	.st5{font-family:'Campton-Light';}
</style>
<g>
	<g>
		<g>
			<path class="st0" d="M31.3,25.4c-0.6,0.6-0.8,1.6-0.7,2.7c0.6,0.1,1.2,0.3,1.3,0.8c0.1,0.6-0.5,1.1-3.4,2
				c-0.5,0.8-3.2,5.4-2.3,8.5c0.3,0.9,0.9,1.6,1.8,2c0.7-0.4,3.4-1.7,5-1c0.6,0.2,1,0.7,1.2,1.4L33.3,42c-0.1-0.4-0.3-0.7-0.7-0.9
				c-1.2-0.6-4.5,1.1-4.5,1.1c0,0-1.7,0.7-1.8,2.1c-0.1,1.3,1.3,2.7,3.9,4.3c1.2-0.6,3.1-1.8,3.2-2.6l0.8,0.1
				c-0.1,1.3-2.2,2.6-3.3,3.1c0.8,0.6,2.3,1.5,3.7,1.5c1.2,0,2.1-1.6,2.1-1.6V24.5c-0.5-0.1-1.2-0.2-2-0.2
				C33.6,24.3,32.1,24.5,31.3,25.4z M31,35.7l-0.5-0.7c0.8-0.6,2.9-2.4,2.7-3.9l0.8-0.1C34.4,33.4,31.2,35.7,31,35.7z"/>
			<path class="st1" d="M42.1,40.3c1.6-0.7,4.3,0.6,5,1c0.9-0.4,1.5-1.1,1.8-2c0.9-3-1.8-7.6-2.3-8.5c-2.9-0.9-3.4-1.4-3.4-2
				c0.1-0.5,0.7-0.7,1.3-0.8c0.1-1.2-0.2-2.1-0.7-2.7c-0.9-1-2.3-1.2-3.4-1.2c-0.8,0-1.6,0.1-2,0.2v24.7c0,0,0.9,1.6,2.1,1.6
				c1.4,0,2.9-0.9,3.7-1.5c-1-0.5-3.2-1.8-3.3-3.1l0.8-0.1c0.1,0.9,1.9,2,3.2,2.6c2.6-1.5,4-3,3.9-4.3c-0.1-1.4-1.8-2.1-1.8-2.1
				c0,0-3.3-1.7-4.5-1.1c-0.4,0.1-0.6,0.4-0.7,0.9l-0.8-0.2C41.1,41.1,41.5,40.6,42.1,40.3z M40.9,31.1l0.8,0.1
				c-0.2,1.5,1.9,3.3,2.7,3.9L44,35.7C43.8,35.7,40.6,33.4,40.9,31.1z"/>
		</g>
	</g>
	<rect x="21" y="40.2" transform="matrix(-0.866 0.5 -0.5 -0.866 67.4872 62.4943)" class="st2" width="8.8" height="0.2"/>
	<rect x="45" y="35.1" transform="matrix(-0.866 0.5 -0.5 -0.866 109.7868 41.0382)" class="st2" width="8.8" height="0.2"/>
	<text transform="matrix(1 0 0 1 53.9375 33.875)" class="st1 st3 st4">UX DESIGNER</text>
	<text transform="matrix(1 0 0 1 3 43.5)" class="st0 st5 st4">DEVELOPER</text>
	<circle class="st2" cx="29" cy="38.1" r="0.5"/>
	<circle class="st2" cx="45.9" cy="37.2" r="0.5"/>
</g>
</svg>
