<?xml version="1.0" encoding="utf-8"?>
<!-- Generator: Adobe Illustrator 19.1.0, SVG Export Plug-In . SVG Version: 6.00 Build 0)  -->
<svg version="1.1" id="Layer_1" xmlns="http://www.w3.org/2000/svg" xmlns:xlink="http://www.w3.org/1999/xlink" x="0px" y="0px"
	 viewBox="17 -19.1 110.2 113.1" style="enable-background:new 17 -19.1 110.2 113.1;" xml:space="preserve">
<style type="text/css">
	.st0{fill:#DCAD7F;stroke:#4D7BAF;stroke-width:4;stroke-miterlimit:10;}
	.st1{fill:#4D7BAF;stroke:#4D7BAF;stroke-width:4;stroke-miterlimit:10;}
	.st2{fill:#362D26;}
	.st3{fill:#F1D89A;}
	.st4{fill:#DCAD7F;}
	.st5{fill:#4D7BAF;}
</style>
<g>
	<g>
		<g>
			<ellipse class="st0" cx="68.8" cy="30.6" rx="38.9" ry="39.2"/>
			<path class="st1" d="M39,78.1L33.1,74c-1.2-0.8-1.5-2.4-0.8-3.5l6.8-9.8c0.8-1.1,2.3-1.3,3.5-0.5l5.9,4.1
				c1.2,0.8,1.5,2.4,0.8,3.5l-6.8,9.9C41.7,78.8,40.1,79,39,78.1z"/>
		</g>
		<g>
			<ellipse class="st2" cx="64.9" cy="32.7" rx="25.9" ry="23.5"/>
			<ellipse class="st2" cx="53.8" cy="18.3" rx="17.4" ry="19.2"/>
			<ellipse class="st2" cx="77.3" cy="17.1" rx="24" ry="21.8"/>
			<ellipse class="st2" cx="86.2" cy="30.2" rx="20.3" ry="20.8"/>
			<ellipse class="st2" cx="89" cy="45.7" rx="12.4" ry="12.6"/>
			<ellipse class="st2" cx="77.5" cy="45.3" rx="12.4" ry="12.6"/>
		</g>
	</g>
	<ellipse class="st2" cx="33.5" cy="25.6" rx="0.8" ry="1.1"/>
	<ellipse class="st2" cx="34.6" cy="22.4" rx="0.9" ry="1.2"/>
	<ellipse class="st2" cx="35.8" cy="27.9" rx="0.6" ry="0.8"/>
	<g id="layer1" transform="translate(-484.24 -690.8)">
		<g id="g3027" transform="translate(-43.979 -45.933)">
			<path id="path3031" class="st3" d="M554.4,759.5c1.4-7.6,4.4-14.1,6-12.9c0.6,0.5,0.4,1.5-1.5,6.1c-2,4.8-2.4,6.4-2.8,11.9
				c-0.3,3.7-0.3,7.6,0.1,9.3c0.3,1.6,0.5,3.6,0.4,4.4c-0.2,1.3-0.3,1.2-1-0.9c-0.5-1.3-0.7-2.7-0.5-3.1c0.2-0.4,0.1-0.8-0.2-0.8
				c-0.5,0-1-3.2-1.4-7.7C553.4,765.4,553.8,762.5,554.4,759.5z M581,726.9c6.8-2.5,7.9-2.8,13.3-3.2c3.2-0.2,5.2-0.1,5.9,0.3
				c0.6,0.4,2.8,0.6,5.2,0.5c9.8-0.4,21.2,6.6,29.1,17.8c1.6,2.3,3.7,6.2,4.6,8.6c0.9,2.4,2.2,5,2.9,5.6c1.9,1.9,2.3,5.2,0.9,7.7
				c-0.6,1.2-1.3,3.9-1.5,6.2s-0.8,5.5-1.4,7.2c-1.1,3.6-5.5,13.2-6.3,14c-0.3,0.3-0.7,1.3-0.8,2.2c-0.1,1.2,0.1,1.7,0.7,1.5
				c1.1-0.3,2.4,1.2,1.7,2.1c-0.3,0.3-1,0.6-1.6,0.5c-0.6,0-1.3,0.4-1.6,1.1c-0.5,1.4-3.5,2.3-5.6,1.8c-1.2-0.3-2.4,0.1-5.4,2.2
				c-3.8,2.5-10.9,5.8-12.2,5.7c-0.4,0-1.5,0.3-2.5,0.7c-2.5,1-4.6,1.2-11.3,1c-4.7-0.1-6.7-0.4-10.7-1.7c-2.7-0.9-5-1.7-5.2-1.9
				c-0.3-0.4,0.6-1.5,1.3-1.4c0.3,0,0.4,0.3,0.2,0.5s0.5,0.6,1.6,0.7c3.3,0.3,4,0.5,3.5,1.1c-0.3,0.4,0,0.4,0.8,0.2
				c0.7-0.2,3.7-0.2,6.7-0.1c10.9,0.5,21.1-3.3,30.8-11.3c7.8-6.5,13.2-17,13.1-26c0-3.5-0.2-4.7-1.1-5.2c-0.6-0.4-1.5-1.5-1.9-2.5
				c-0.7-1.5-0.6-2.3,0.1-4.4c0.9-2.4,0.8-2.8-1-6.9c-3.4-8-10.9-15.6-20.2-20.5c-2.1-1.1-4.1-2.3-4.6-2.6
				c-2.7-1.8-4.2-2.1-10.3-2.4c-4.8-0.2-7.6,0-10.3,0.7c-5.9,1.5-9.1,2.6-10.5,3.6c-0.7,0.5-1,0.5-0.7,0.2c0.3-0.4,0.2-0.7-0.1-0.7
				C575,729.6,576.7,728.5,581,726.9L581,726.9z M611.1,814.9c1.6-1.3,2.7-1.3,5,0.1c3.5,2.1,2.9,6-1.1,7.7
				c-1.7,0.7-2.3,0.7-3.3,0.1C609.2,821.1,608.9,816.7,611.1,814.9L611.1,814.9z M621.9,814.7c0.6-0.2,1.4,0.2,1.9,0.7
				c1.2,1.4,0.3,2.8-1.6,2.7c-1.3-0.1-1.5-0.4-1.4-1.6C620.9,815.7,621.4,814.9,621.9,814.7z M627.7,813.7c2.2-0.6,3.4,0.6,2.4,2.5
				c-0.5,1.1-1,1.2-2,0.8C625.4,816,625.2,814.4,627.7,813.7z M625.7,825.6c0.8-0.6,1.2-0.5,1.9,0.1c0.5,0.4,0.8,1,0.8,1.3
				c-0.1,0.9-2.2,1-2.9,0.2S624.9,826.2,625.7,825.6z M635.1,792.8c0.1,0,0.4,0.3,0.6,0.6c0.2,0.3,0,0.6-0.3,0.6
				c-0.4,0-0.6-0.3-0.6-0.6C634.8,793,635,792.8,635.1,792.8z"/>
			<path id="path3029" class="st4" d="M588,807.7c0.3,0,0.5,0.4,0.4,0.9s-0.3,0.9-0.6,0.8c-0.3,0-0.5-0.4-0.4-0.9
				C587.4,808.1,587.7,807.7,588,807.7z M591.3,808c0.6,0,1,0.2,0.8,0.4s-0.7,0.2-1.2,0C590.5,808.2,590.6,808,591.3,808L591.3,808z
				 M609,724.8c0.8-0.4,7.7,2,11.2,4.1c7.5,4.3,15.3,13.3,18.5,21.7c1,2.5,2.4,5.4,3.3,6.4c1.9,2.3,2.3,5,0.9,7.2
				c-0.6,0.9-1.2,2.9-1.4,4.5c-0.4,3.4-1.9,8.9-1.7,6.5c0.1-2.1-1-2.2-1.6-0.1c-2.6,8.3-5,13.3-7.9,16.9c-2.9,3.6-9.6,9.1-13.9,11.5
				c-1.6,0.9-3,1.9-3,2.2c-0.1,1,3.1-0.3,7.2-2.9c3.4-2.2,4.4-2.5,6.7-2.4c2.2,0.1,3-0.1,4.2-1.3c0.8-0.8,1.8-1.5,2.2-1.5
				c1.1,0.1,1-1-0.2-1.4c-0.6-0.2-0.4-0.3,0.5-0.2c1.9,0.3,1.9,2,0,2.1c-0.7,0-1.7,0.7-2.1,1.4c-0.8,1.4-4.3,2.2-6.1,1.3
				c-0.7-0.3-1.8,0.2-3.5,1.5c-3.6,2.8-12.2,6.8-10.8,5c0.6-0.8-0.7-1.5-1.6-0.9c-0.4,0.3-1.6,0.6-2.6,0.8c-1.2,0.2-0.6-0.2,1.8-1.2
				c3.3-1.4,5.7-2.6,9.2-4.7c0.7-0.4,3.5-2.6,6.1-4.8c8.1-6.7,12.8-15.9,12.9-25c0-4.4-0.1-5-1.7-6.6c-1.7-1.7-1.7-1.9-1-5.4
				c0.7-3.4,0.6-3.9-1.3-8.3c-3.3-7.7-11.6-15.9-20.8-20.5c-3.8-2-4.3-2.4-4.2-3.8C608.4,725.7,608.7,724.9,609,724.8L609,724.8z
				 M612.9,729c0.3-0.2,0.5-0.1,0.5,0.2s0.5,0.8,1.3,1.2c0.7,0.4,2.3,1.4,3.6,2.2c2.1,1.4,2.2,1.4,1.3,0.3c-0.5-0.7-0.7-1.4-0.5-1.6
				c0.8-0.7,1.3-0.3,1.6,1.2c0.3,1.7,2.2,3.8,3.5,3.9c0.4,0,0.9,0.5,1,1c0.2,0.5,1.7,2.4,3.4,4.3c4.1,4.3,8.3,14,7.1,16.3
				c-1.2,2.4-0.8,5.2,1.1,6.9c1.4,1.2,1.7,1.9,1.5,4c-0.1,1.4,0,2.9,0.3,3.4s0.5,0.8,0.6,0.6c0-0.2,0.3-1.5,0.6-2.9
				c0.3-1.5,1.1-3.8,1.7-5.2c1.3-3,1-6.6-0.8-8c-0.6-0.5-1.8-2.8-2.6-5.1c-2.2-6.1-6.1-11.8-10.8-15.8c-1.1-0.9-2.4-2.1-2.8-2.6
				c-1.7-1.9-6.5-4.8-8.6-5.1c-1.2-0.2-2.4-0.5-2.8-0.8c-1.1-0.7-2.1,0.1-1.4,1.1C612.1,728.9,612.6,729.1,612.9,729L612.9,729z
				 M603.9,807.3c0.8,0.1,1.2,0.2,0.7,0.4c-0.4,0.1-1.1,0.1-1.5-0.1C602.7,807.3,603.1,807.2,603.9,807.3z M607.9,808.1
				c0.4,0,1.2-0.1,1.9-0.2c1.1-0.2,1.1-0.2,0,0.3c-0.6,0.3-1.5,0.4-1.9,0.2C607.4,808.2,607.4,808.1,607.9,808.1L607.9,808.1z
				 M611.4,815.2c1.4-1.2,1.9-1.2,3.3-0.6c2.2,1,3.6,2.6,3.5,3.7c-0.1,0.6-0.3,0.5-0.5-0.4c-0.5-1.7-2.4-2.9-4.5-2.8
				c-1.3,0-1.9,0.5-2.6,2.1c-0.7,1.6-0.9,1.7-0.8,0.7C609.7,817.1,610.5,815.9,611.4,815.2L611.4,815.2z M611.2,821.1
				c0.7,1.1,1.5,1.6,2.2,1.4c0.8-0.2,0.9-0.2,0.2,0.4c-0.7,0.5-1.1,0.4-2.2-0.8c-0.8-0.8-1.4-1.8-1.3-2.1
				C610,819.6,610.6,820.2,611.2,821.1L611.2,821.1z M616.5,820.8c0.8-0.7,1.5-1,1.5-0.7c-0.1,0.6-2.6,2.5-2.9,2.2
				C615,822.1,615.7,821.5,616.5,820.8L616.5,820.8z M626.1,825.3c0.4-0.2,1.1,0,1.5,0.5c1,1-0.2,2.5-1.5,1.9
				C625.2,827.1,625.2,825.8,626.1,825.3L626.1,825.3z M626.6,826.8c0.3,0,0.6-0.2,0.7-0.5c0-0.3-0.2-0.6-0.6-0.6
				c-0.3,0-0.6,0.2-0.7,0.5C626,826.5,626.3,826.8,626.6,826.8z M634.7,788c1.2-2.1,2.1-3.5,2.1-3.1c-0.1,0.8-2.7,6.1-3.7,7.5
				C631.6,794.5,632.6,791.7,634.7,788L634.7,788z M638.5,778.8c0.6-2.8,1.4-2.3,0.8,0.5c-0.3,1.3-0.7,2.3-1,2.3s-0.5-0.2-0.4-0.5
				C638,780.9,638.3,779.9,638.5,778.8z"/>
		</g>
	</g>
	<path class="st5" d="M99.1,2.9c8.8,9.5,11.6,22.4,10.1,31.1c-1.2,7.3-5.7,13.9-12.1,16.6c-10.4,4.5-29.5-0.5-37.4-22.3
		C45-12,78.6-19.2,99.1,2.9z"/>
	<path class="st2" d="M95.4,4.2C106.7,14.7,109,30.3,105.8,41c-2.8,8.9-10,17.3-19.2,21c-14.8,5.9-39.4,1-47-23.6
		C25.7-6.3,69.9-19.6,95.4,4.2z"/>
</g>
</svg>
