<?xml version="1.0" encoding="utf-8"?>
<!-- Generator: Adobe Illustrator 19.1.0, SVG Export Plug-In . SVG Version: 6.00 Build 0)  -->
<svg version="1.1" id="Layer_1" xmlns="http://www.w3.org/2000/svg" xmlns:xlink="http://www.w3.org/1999/xlink" x="0px" y="0px"
	 viewBox="0 0 58 53.6" style="enable-background:new 0 0 58 53.6;" xml:space="preserve">
<style type="text/css">
	.st0{opacity:0.8;fill:#0099FF;}
	.st1{fill:#FFFFFF;}
	.st2{font-family:'Campton-Bold';}
	.st3{font-size:11px;}
	.st4{font-family:'Campton-Light';}
	.st5{font-size:10px;}
</style>
<g>
	<polygon class="st0" points="29,5.1 33.6,0 36.2,6.2 42.3,2.6 42.8,9.2 49.7,7.6 48,14.1 55.1,14.5 51.3,20.1 58,22.6 52.4,26.8 
		58,31.1 51.3,33.5 55.1,39.1 48,39.6 49.7,46 42.8,44.4 42.3,51 36.2,47.5 33.6,53.6 29,48.5 24.4,53.6 21.7,47.5 15.7,51 
		15.2,44.4 8.2,46 10,39.6 2.8,39.1 6.7,33.5 0,31.1 5.5,26.8 0,22.6 6.7,20.1 2.8,14.5 10,14.1 8.2,7.6 15.2,9.2 15.7,2.6 
		21.7,6.2 24.4,0 	"/>
	<text transform="matrix(1 0 0 1 14.5968 33.7226)" class="st1 st2 st3">BUZZ</text>
	<text transform="matrix(1 0 0 1 18.7145 23.6384)" class="st1 st4 st5">Fizz</text>
</g>
</svg>
