<?xml version="1.0" encoding="utf-8"?>
<!-- Generator: Adobe Illustrator 19.1.0, SVG Export Plug-In . SVG Version: 6.00 Build 0)  -->
<svg version="1.1" id="Capa_1" xmlns="http://www.w3.org/2000/svg" xmlns:xlink="http://www.w3.org/1999/xlink" x="0px" y="0px"
	 viewBox="-37 38.3 49.9 48.7" style="enable-background:new -37 38.3 49.9 48.7;" xml:space="preserve">
<style type="text/css">
	.st0{fill:#00E99F;}
</style>
<path class="st0" d="M9.5,50.7c-2.2-3.8-5.3-6.8-9.1-9.1c-3.8-2.2-8-3.3-12.5-3.3s-8.7,1.1-12.5,3.3s-6.8,5.3-9.1,9.1
	c-2.2,3.8-3.3,8-3.3,12.5c0,5.4,1.6,10.3,4.8,14.7c3.2,4.3,7.3,7.3,12.3,9c0.6,0.1,1,0,1.3-0.2c0.3-0.3,0.4-0.6,0.4-1v-1.8V81
	l-0.7,0.1c-0.5,0.1-1.1,0.1-1.8,0.1s-1.5-0.1-2.3-0.2s-1.5-0.5-2.2-1s-1.1-1.2-1.4-2l-0.3-0.7c-0.2-0.5-0.6-1.1-1-1.7
	c-0.5-0.6-0.9-1-1.4-1.2l-0.4-0.1c-0.2-0.1-0.3-0.2-0.4-0.4s-0.2-0.3-0.3-0.5s0-0.3,0.2-0.4s0.5-0.1,0.9-0.1l0.6,0.1
	c0.4,0.1,1,0.3,1.6,0.8c0.6,0.4,1.2,1,1.6,1.7c0.5,0.9,1.1,1.6,1.8,2c0.7,0.5,1.4,0.7,2.1,0.7s1.3-0.1,1.9-0.2
	c0.5-0.1,1-0.3,1.5-0.5c0.2-1.5,0.7-2.6,1.6-3.3c-1.2-0.1-2.3-0.3-3.3-0.6s-2-0.7-3.1-1.3s-1.9-1.3-2.6-2.2s-1.3-2-1.7-3.4
	s-0.7-3-0.7-4.9c0-2.6,0.9-4.9,2.6-6.7c-0.8-2-0.7-4.2,0.2-6.6c0.6-0.2,1.6,0,2.8,0.4c1.2,0.5,2.1,0.9,2.7,1.3
	c0.6,0.3,1,0.6,1.4,0.9c2-0.6,4.1-0.8,6.2-0.8s4.2,0.3,6.2,0.8l1.2-0.8c0.8-0.5,1.8-1,3-1.4c1.1-0.4,2-0.6,2.6-0.4
	c1,2.4,1.1,4.7,0.3,6.6c1.7,1.8,2.6,4.1,2.6,6.7c0,1.8-0.2,3.5-0.7,4.9c-0.4,1.4-1,2.6-1.7,3.4c-0.7,0.9-1.6,1.6-2.6,2.2
	c-1.1,0.6-2.1,1-3.1,1.3s-2.1,0.5-3.3,0.6c1.1,1,1.7,2.5,1.7,4.6v6.9c0,0.4,0.1,0.7,0.4,1s0.7,0.3,1.3,0.2c5-1.7,9.1-4.7,12.3-9
	s4.8-9.2,4.8-14.7C12.8,58.7,11.7,54.5,9.5,50.7L9.5,50.7z"/>
</svg>
