<?xml version="1.0" encoding="utf-8"?>
<!-- Generator: Adobe Illustrator 19.1.0, SVG Export Plug-In . SVG Version: 6.00 Build 0)  -->
<svg version="1.1" id="Layer_1" xmlns="http://www.w3.org/2000/svg" xmlns:xlink="http://www.w3.org/1999/xlink" x="0px" y="0px"
	 viewBox="-27.7 -2.3 218.3 79.3" style="enable-background:new -27.7 -2.3 218.3 79.3;" xml:space="preserve">
<style type="text/css">
	.st0{fill:#00E99F;}
</style>
<g id="Layer_1_1_">
	<g>
		
			<rect x="36.5" y="46.6" transform="matrix(0.5736 0.8192 -0.8192 0.5736 69.5211 -22.8694)" class="st0" width="40.5" height="17.4"/>
		
			<rect x="36.9" y="23.4" transform="matrix(0.5736 -0.8192 0.8192 0.5736 -2.2066 60.3466)" class="st0" width="40" height="17.8"/>
		<polygon class="st0" points="96.4,61.2 61.5,61.2 61.5,77 105.3,77 		"/>
		<polygon class="st0" points="96.8,26.6 60.9,26.6 60.9,10.8 105.9,10.8 		"/>
	</g>
	<g>
		<polygon class="st0" points="128.5,63.3 128.5,12.5 110.7,26.1 110.7,76.9 		"/>
		<polygon class="st0" points="110.9,55.4 149.4,27.5 149.2,49.5 110.7,77 		"/>
	</g>
	<g>
		<polygon class="st0" points="190.2,55.4 151.7,27.5 152,49.5 190.5,77 		"/>
		<polygon class="st0" points="190.5,62.9 172.7,49.8 172.7,-2.3 190.5,9.4 		"/>
	</g>
</g>
<rect x="-27.7" y="40.5" class="st0" width="42.8" height="4.2"/>
</svg>
