<?xml version="1.0" encoding="utf-8"?>
<!-- Generator: Adobe Illustrator 19.1.0, SVG Export Plug-In . SVG Version: 6.00 Build 0)  -->
<svg version="1.1" id="Capa_1" xmlns="http://www.w3.org/2000/svg" xmlns:xlink="http://www.w3.org/1999/xlink" x="0px" y="0px"
	 viewBox="-37 37.9 50.1 50.1" style="enable-background:new -37 37.9 50.1 50.1;" xml:space="preserve">
<style type="text/css">
	.st0{fill:#FFFFFF;}
</style>
<path id="LinkedIn__x28_alt_x29_" class="st0" d="M9.4,37.9h-42.7c-2,0-3.7,1.6-3.7,3.6v42.9c0,2,1.7,3.6,3.7,3.6H9.4
	c2,0,3.7-1.6,3.7-3.6V41.5C13.1,39.5,11.5,37.9,9.4,37.9z M-21.8,79.8h-7.6V57.2h7.6V79.8z M-25.6,54.1c-2.6,0-4.2-1.7-4.2-3.9
	s1.7-3.9,4.3-3.9s4.2,1.7,4.2,3.9S-23,54.1-25.6,54.1z M5.5,79.8h-7.6V67.7c0-3-1.1-5.1-3.8-5.1c-2.1,0-3.3,1.4-3.9,2.8
	c-0.2,0.5-0.3,1.2-0.3,1.8v12.6h-7.6c0,0,0.1-20.5,0-22.6h7.6v3.2c1-1.5,2.8-3.7,6.8-3.7c5,0,8.7,3.2,8.7,10.2L5.5,79.8L5.5,79.8
	L5.5,79.8z M-10.1,60.5L-10.1,60.5z"/>
</svg>
