<?xml version="1.0" encoding="utf-8"?>
<!-- Generator: Adobe Illustrator 19.1.0, SVG Export Plug-In . SVG Version: 6.00 Build 0)  -->
<svg version="1.1" id="Layer_1" xmlns="http://www.w3.org/2000/svg" xmlns:xlink="http://www.w3.org/1999/xlink" x="0px" y="0px"
	 viewBox="0 0 50 50" style="enable-background:new 0 0 50 50;" xml:space="preserve">
<style type="text/css">
	.st0{opacity:0.8;fill:#2A2929;stroke:#00E99F;stroke-width:3;stroke-miterlimit:10;enable-background:new    ;}
	.st1{fill:#00E99F;}
</style>
<g>
	<g>
		<path class="st0" d="M25.3,48.4c-0.9,0-1.8-0.2-2.6-0.7l-16.3-9c-1.6-1-2.9-2.7-2.9-4.6V15.9c0-1.9,1.3-3.7,2.9-4.6l16.1-9.1
			c0.8-0.4,1.8-0.7,2.7-0.7s1.8,0.2,2.7,0.7l15.9,9.1c1.7,0.9,2.7,2.7,2.7,4.6V34c0,1.9-1,3.7-2.7,4.6l-15.9,9.1
			C27.1,48.2,26.2,48.4,25.3,48.4z"/>
	</g>
	<g id="Layer_1_1_">
		<g>
			
				<rect x="5.9" y="26.3" transform="matrix(-0.5736 -0.8192 0.8192 -0.5736 -6.4456 53.3545)" class="st1" width="9.5" height="4.1"/>
			
				<rect x="6" y="20.9" transform="matrix(-0.5736 0.8192 -0.8192 -0.5736 35.6899 27.3496)" class="st1" width="9.4" height="4.2"/>
			<polygon class="st1" points="20,29.8 11.8,29.8 11.8,33.5 22.1,33.5 			"/>
			<polygon class="st1" points="20.1,21.6 11.6,21.6 11.6,17.9 22.2,17.9 			"/>
		</g>
		<g>
			<polygon class="st1" points="27.5,30.2 27.5,18.3 23.3,21.5 23.3,33.4 			"/>
			<polygon class="st1" points="23.4,28.4 32.4,21.8 32.4,27 23.3,33.5 			"/>
		</g>
		<g>
			<polygon class="st1" points="42,28.4 33,21.8 33,27 42.1,33.5 			"/>
			<polygon class="st1" points="42.1,30.2 37.9,27.1 37.9,14.8 42.1,17.6 			"/>
		</g>
	</g>
</g>
<g id="Layer_2">
</g>
</svg>
