<?xml version="1.0" encoding="utf-8"?>
<!-- Generator: Adobe Illustrator 19.1.0, SVG Export Plug-In . SVG Version: 6.00 Build 0)  -->
<svg version="1.1" id="Layer_1" xmlns="http://www.w3.org/2000/svg" xmlns:xlink="http://www.w3.org/1999/xlink" x="0px" y="0px"
	 viewBox="128 -114.8 331.7 303.8" style="enable-background:new 128 -114.8 331.7 303.8;" xml:space="preserve">
<style type="text/css">
	.st0{fill:#00E99F;}
</style>
<title>Michigan SVG</title>
<g>
	<title>Layer 1</title>
	<path id="path1390" class="st0" d="M128.9-66.4c2.9-2.6,6.6-3.1,11.5-3.9c4.9-0.8,6.4-2.9,8.4-4.9c1.9-1.9,6.4-6.2,11.1-4.5
		c4.7,1.8,10.3-0.4,12.1-1.8s4.7-1.8,6-4.1c1.4-2.3,2.1-2.3,4.7-2.1s4.7-1.8,5.1-3.5c0.4-1.8,1.8-3.7,3.5-4.5
		c1.8-0.8,2.9-1.8,3.9-3.3c1-1.6,2.7-1.9,3.7-2.1s2.5-1.2,5.1-3.9c2.5-2.7,4.1-5.1,7.2-5.3s3.3-0.8,4.7-1.9c1.4-1.2,4.9-2.3,9.7-1.9
		s2.3,0,4.9,0.4c2.5,0.4,2.3,3.1-0.4,3.3c-2.7,0.2-2.9,0.8-5.1,0.6c0.2,1.6-0.6,2.3-2.3,3.5s-3.7,2.1-4.9,3.5
		c-1.2,1.4-0.8,1.9-2.1,2.1c-1.4,0.2-2.1,0.8-2.3,2.5c-0.2,1.8-0.4,1-1.2,1.8c-0.8,0.8-0.4,0.8-0.8,2.3c-0.4,1.6-0.8,0.2-1.8,1
		c-1,0.8-0.8,2.9-1,3.7c-0.2,0.8-0.8,1-2.5,1.4c-0.4,2.5-0.8,3.7-1.4,4.9c-0.6,1.2-1,2.3-0.6,4.3c0.4,1.9,0.2,1.8-0.2,2.7
		s0.4,1.9,1.4,0.8c1-1.2,0.6-2.5,1.8-3.7s3.1-2.1,3.9-3.7c0.8-1.6,2.7-1.4,3.7-2.7c1-1.4,3.7-0.8,1.6,0.6c-2.1,1.4-1.9,1.8-2.9,1.9
		s-0.4,0.6-0.8,1.8c-0.4,1.2-1.4,0.8-0.4,1.2c1,0.4,0.8,0.4,1.6-0.2c0.8-0.6,0.4,0.2,0.8-1.4c0.4-1.6,0.2-1.6,1.8-1.8
		c1.6-0.2,3.9-0.4,6.4,0s1.6,0.6,2.5,0.4c1-0.2,1,0.6,0,1.9c-1,1.4-1,2.7,0,1.8c1-1,1.2,0,1.6-1.6c0.4-1.6-0.4-1.4,0.4-1.6
		c0.8-0.2,0.6-0.2,1,1.2c0.4,1.4,1.2,1.8,1.2,0.8c0-1-1.2-1.9-0.4-1.8c2.3,0.4,3.5-0.8,3.9,1.2c0.4,1.9,0.8,2.9,2.9,2.7
		s2.1,0.4,2.3,2.5s0.6,1.2,1.9,2.3s1.4,0.6,1.6,1.9c0.2,1.4-0.8,1.8,0.6,1.9c1.4,0.2,1.9,0.6,2.7,1.9c0.8,1.4,1.8,1.2,1.8,4.1
		s3.3,2.5,4.1,2.7c0.8,0.2,3.1,0.4,4.3-0.4c1.2-0.8,2.5,0,4.3-1.6c1.8-1.6,3.9-1.8,3.7,0.6s2.1,1.9,3.1,2.1c1,0.2,1.4,0.4,2.1,0
		c0.8-0.4,0,0,0.8-1.4c0.8-1.4,0.8-1.9,1.9-0.8c1.2,1.2,1,1.2,2.1,1.8c1.2,0.6,1.9,1.9,2.5,1.4c0.6-0.6,1-1,1.6-2.5
		c0.6-1.6,1.6-2.5,2.9-2.9c1.4-0.4,1.4-2.5,2.7-2.5c1.4,0,2.1-0.6,2.1-0.6s0.1-0.5,1.8-1.6c1-0.6,2.3-1.6,3.3-1.9s1.4-0.8,1.4-1.6
		c0-0.8,1.6-1.4,2.7-1.2c1.2,0.2,4.6-0.1,7-0.7c2.4-0.6,8.8-0.4,10.7-0.4c1.9,0,7.8,0,11.8-2.9c4-2.9,6.1-3,8.6-3
		c2.5,0,2.5,0.5,3.6-0.2c1.1-0.7,3.1-1.5,1.6,2c-1.5,3.5-1.1,9.4-1,11.3c0.1,1.9,1.5,1.9,1.7,2.1c0.2,0.2,5.6,0.4,6.2,0.1
		c0.6-0.2,0,1,0.6,1.2c0.6,0.2,1.6,0,3.2-0.7c1.6-0.7,2.6-2.6,4-2.5c1.4,0.1,2.4,1,2.4,2.7c0,1.7,1.2,2,3.1,0.2
		c1.9-1.7,1.2-0.9,2.1-1s0-0.9,0.6-1.7c0.6-0.9,1.6-0.6,2.2-0.7c0.6-0.1,0.2-0.4,0.7-1.2c0.5-0.9,0.6-0.2,1.1,0
		c0.5,0.2,0.6,0.9,1.2,1.6c0.6,0.7,0.9,1.5,1.4,2.4c0.5,0.9,1.4,2.7,2,3.7c0.6,1,0.5,1.5,0.4,2.2c-0.1,0.7,1.2,1.4,1.6,0.1
		c0.4-1.2,1-0.6-0.1-2c-1.1-1.4-1.4-1.9-1.9-2.7c-0.5-0.9-0.9-1.5-1-2.2c-0.1-0.7,0-0.2-0.9-1.1c-0.9-0.9-1.4-0.7-1.1-1.7
		c0.2-1,0.9-0.4,1.4-1.2c0.5-0.9,0.7-1.5,2.5-0.7c1.7,0.7,3.8,0.4,2.5,2.5c-1.4,2.1-2.6,3.3-1.1,5c1.5,1.6,2.4,3.6,2,4.5
		c-0.4,0.9,0.1,1.9,0.4,2.5c0.2,0.6,0.1,1.6-1.7,1.7c-1.9,0.1-3.8,2.1-1.9,2.6s1.5,0.5,2.9,0.4s1.5,1.9,2.2,1.9
		c0.7,0,4.6-0.5,1.5,1.1c-2.1,1.1,2,3.3,2.7,3.7c0.7,0.4,0.4,0.9,1.4,1.2c1,0.4,1.4-0.4,2.1,0.2c0.7,0.6,1,1.6,0,2.2
		c-1,0.6,0.2,0.6-1.2,0.2c-1.5-0.4-1.6-2.1-2.2-0.4c-0.6,1.7-1.2,1.4-2.2,0.2s-1.5-1.4-3.2-0.1c-1.7,1.2-2.4,0.5-4.1-0.1
		c-1.7-0.6-2.2-0.2-3.1,0.4c-0.9,0.6-2,0.5-1.5,1.2c0.5,0.7,1.9,1.7,0.6,1.6c-1.2-0.1-2.7,0-2.2-1.1s1.9-0.9,0.7-2.1
		c-1.1-1.2-1.9-0.4-2.6,0c-0.7,0.4-2.7,1.1-2.7-0.4s-0.5-0.9-1.6-0.9c-1.1,0-2.6,1.1-2.6,0.1s0.2-1.9-0.7-0.7c-1,1.1-1.1,0.6-1,2.2
		c0.1,1.6-1.4,1.7-1,3.5c0.4,1.7,0.5,1.2,0.4,2.9c-0.1,1.6-0.1,1.5,0.7,1.5s-0.1,1.9-0.9,1.6c0,0-2.7,0-3.2-1c-0.5-1-2-2.1-2.1-2.5
		c-0.1-0.4-0.3-0.5-1.4-0.7s-1.1-0.5-1.6-1.2c-0.5-0.7,0.1-0.7-1-1c-1.1-0.2-1.6-0.1-1-1c0.6-0.9,0.5-0.6,1.5-0.4s3.1-0.2,0.9-1.1
		s-2.4,0.4-3.8-0.2c-1.5-0.6-2.6-0.1-3.8-0.9s-1.4-1.4-3.7-1c-2.4,0.4-3.7-0.5-5-1.4c-1.2-0.9-4.3,0-5.5,0.2c-1.1,0.2-2.6-0.4-4.1,2
		c-1.5,2.4-2.8,5.6-6.8,5.2c-4-0.4-3.2-0.5-5.1,1c-1.9,1.5-4.5,1.5-3.5-0.1c1-1.6,1-2.2-1.1-1.7c-2.1,0.5-0.6,1.2-3.1,1.4
		c-2.5,0.1-1.6,0.6-2.7,1c-1.1,0.4-1,0-2-0.2s-0.6-0.1-1.1,0.7c-0.5,0.9-1,0.5-2.1,1c-1.1,0.5-1.6,1.6-1.7,3.1
		c-0.1,1.5-0.2,5.2-2.5,5.3s0,1.7-3.7,2.1c-2.4,0.2-1.6,1.1-1.5,1.2c0.1,0.1-0.1,1-0.7,1c-0.6,0-1.4,0.7-1.1,1.6
		c0.2,0.9-0.2,1.5-1,1.6c-0.7,0.1-0.7,1-0.6,2c0.1,1,0.6,1.2-1.2-0.1c-1.9-1.4-2.9-3.1-1-2.9c1.9,0.2,1.2-0.5,1.2-1.4
		c0-0.9,1.1-1.2,1-2.2c-0.2-2.2,3.7-0.4,2.5-2.4c-0.9-1.5,1-3.6,1.5-4.3c0.5-0.7-1.4-3.3-3.1-0.6s-3.5,3.1-4.5,2.2
		c-2.3-2-3.2-2.6-3.1,0.7c0.1,3.2-0.5,2.6-1.1,3.5c-0.6,0.9-1.6,1.7-1.4,2.6c0.2,0.9-0.6,0.6-2.2,1c-3.8,0.9-1.7,0-2.4-2.4
		c-0.1-2-1.1-3.7,1-5.2c1-0.7-0.2-6.6-1.7-2.6c0,0-1.1,1.4-1.1,2.7s-1.7,0.6-1.5,3.5c0.2,2.9-0.7,3.8-2.4,5.5
		c-1.6,1.6-3.8,2-3.7,4.2s-2.4,1.6-2.4,4.7c0,3.1-1.9,3.7-1.9,5.2c0,1.5-1.4,3.2-2,4.3c-0.6,1.1-2.1,2.6-2.2,4.3s-1,3.1-2.1,4.5
		c-0.9,1.1-3.7,3.2-3.7,6.2c0,0.6-2.4,1-2.9,0.3c-0.5-0.7-4.3-4.2-2.2-6.4c2.1-2.1,2.5-4.5,2.6-6.3c0.2-1.8-1.2-3.6-2.9-1.8
		s-6.7,2.4-5.2-1.9c1.5-4.3,3.9-5.3,1.4-7.8c-2.5-2.5-0.5-4.1,0.1-5.6s-2-6.9-5.8-6.9s-4.1,0.4-5.8-0.1c-1.4-0.3-2.1-3.1-1-4
		s1.3-9.4-5.8-8.1c-7.2,1.3-15.5,0.2-17.9-0.5c-2.4-0.7-5.6,1-7.8-1.5c-2.2-2.5-5.7-3.6-9.4-4.3c-2.3-0.4-2.8-1.8-6.9-2.9
		c-2.8-0.7-6.1-1.8-9.9-3.2c-5.5-2.1-6.9-0.8-8.2-2c-2-2-4.9-2-6.8-2.5c-2.5-0.7-7.8-0.9-6.4-4.3c1.5-3.7-1-6.9-2.1-7.3
		c-1.6-0.5-2.9-0.5-5.9-1.6C128.4-64.5,128.3-66,128.9-66.4z"/>
	<path id="path1392" class="st0" d="M273.3-63.7c0,0.8-0.4,1.4,0.6,1.6s1-0.4,1.6-1.6c0.6-1.2,1-1.4,0.4-2.1c-0.6-0.8,0-0.6-1.2-0.8
		s-1.6-0.6-1.6,0.8s-0.2,0.6,0,1.4C273.3-63.7,273.3-63.7,273.3-63.7z"/>
	<path id="path1394" class="st0" d="M385.5-43.8c0,1.2,1,1.9,2,0.6c1-1.2,1.2-1.5,2.5-1.6s2.1-1,1.9-2s-0.7-0.7-1.5-0.9
		c-0.7-0.1-0.9-1.2,1.6-1c2.5,0.2,3.1,0.6,4.1,1.9s0,1.7,1.2,2.2c1.2,0.5,3.1,1.1,2,2.1c-1.1,1-0.7,1.4-1,2.1
		c-0.3,0.7,1.2,0.7-1.2,0.5c-2.5-0.2-2.1-0.1-3-0.7s0.1-0.6-1.7-0.4c-1.9,0.2-1.5-0.6-3.1,0.1c-1.6,0.7-1.4,1.2-2.4,0.5
		c-1-0.7-0.2-0.9-1.4-1.1c-1.1-0.2-1.5-0.1-1.1-1.1C384.8-43.5,385.5-43.8,385.5-43.8z"/>
	<path id="path1396" class="st0" d="M355-33.8c0,0.9,1.2,1.5,1.4,0.6C356.5-34,355-35.4,355-33.8z"/>
	<path id="path1398" class="st0" d="M358.6-29.9c1.1,0.6,1.1,0.5,1.9,1.9c0.7,1.4,1.7,2,2.6,1.7s2.2-0.1,2.8-1
		c0.6-0.9,1.1-1.6-0.5-2c-1.6-0.4-2.6-1.1-3.2-1.5c-0.6-0.4-2-0.1-3.1-0.5C358-31.6,357.4-30.5,358.6-29.9z"/>
	<path id="path1400" class="st0" d="M318.1-19.6c0.1-2.2,0.4-1.4,1.3-1.8c0.9-0.5,0.2-1.2,0.2-2.1s2.2-2,2,1.6
		c-0.2,3.6,0.9,2,1.3,1.9c0.4-0.1,0.2,2.1-0.7,2.7c-1,0.6-0.3,2.1-2.6,1.8c-2.3-0.2-1.4-2.1-1.3-2.5
		C318.4-18.5,318.1-19.6,318.1-19.6z"/>
	<path id="path1402" class="st0" d="M309.8-13.9c1.6,0,1.1,2.9-0.2,2.8S308.8-13.9,309.8-13.9z"/>
	<path id="path1404" class="st0" d="M315.4-24.5c0.7,0.1,0.9,2.2,0.1,2.1C314.6-22.6,314.2-24.6,315.4-24.5z"/>
	<path id="path1406" class="st0" d="M322.7-29c-1.1-0.7-2,1-1,1.7S324.3-27.9,322.7-29z"/>
	<path id="path1408" class="st0" d="M306.5-25.8c0.8,0.1,1.3-1.2,0.2-1.2S305.6-25.9,306.5-25.8z"/>
	<path id="path1410" class="st0" d="M302.8,13c1.2,1.5,2.2,3,2.1,1c-0.2-2.1,0.4-2-0.2-2.5c-0.6-0.6-0.1-1.4-1.4-1.4
		C301.9,10.2,301.9,11.9,302.8,13z"/>
	<path id="path1412" class="st0" d="M300.5,17.9c-0.8,0.8-2.3,0.3-1.4-0.9C300.1,15.8,301.2,17.2,300.5,17.9z"/>
	<path id="path1414" class="st0" d="M291,189c0.1-2.7,2.5-7.8,5.6-11.5c3.2-3.7,5.4-15.1,6-22.4c0.3-3.4,0.8-7,0.9-10.1
		c7.6-2.1,2.4-1.3-0.1-1.7c0-1.2-0.2-5.5-0.7-7.7c-0.4-1.6-1.7-5.1-1.3-7.2c2.8-0.4,2.6-1.5-1-1.1c-0.5-1.6-1.2-3-1.9-4.6
		c-2-4.1-0.9-2.9,0.3-3.3c1.2-0.4,3.7-3.6,0-2s-2.7,0-3.5-1.3s-1.5-1.9-1.8-2.9s0.8-1.8,1.4-2c0.6-0.2,1-2.4-0.6-1.7
		c-1.6,0.7-2.3-0.6-2.8-2.7c-0.5-2.1-1.8-5.5-2.9-6.8c-1.1-1.4-3.3-5,0.7-8.4c4-3.3,2.5-8.6,2.1-10.1c-0.5-1.5-1.3-3.7-2.1-4.6
		c-0.9-1-2-2.8-1.6-3.1s2.9,2.1,1.8-1c4.2-5.3-2,0.4-2.1,0.1c-0.2-0.4-0.5-0.8,0-1.3c0.8-0.8,2.2-1.4,3.1-3c0.9-1.7,2.1-3,2.7-5.6
		c0.6-2.5,1.5-3.2,2.1-5.2c0.6-2,0.4-2.7,1.8-2.6c1.4,0.1,2.5-1.2,1-1.8c0,0-1.6,0.1-1-2.2c0.6-2.3,0.5-3,0.3-4.2
		c-0.2-1.2-0.3-3.6,0.4-3.4c0.7,0.2,2.8,0.3,0.6-1.4c-2.2-1.7-0.9-1.5-1-2c-0.1-0.5-0.2-0.5-1-0.8c-0.7-0.3-0.2-2.9,1.4-1.5
		c1.7,1.4,2.2,1.6,3.4,1.5c1.2-0.1,2.9-1.6,0.6-2c-2.2-0.4-2.5-0.6-2.5-1s-0.9-1.2-1.6-0.9c-0.7,0.3-1.4-2,0.5-1.1
		c0.9,0.4,1-0.2,1.1-0.6c0.2-0.4,1.5-0.6,1.7,0.1c0.2,0.7,0.4,1,0.6,1.7c0.2,0.7,0.8,1.1,1.5,0.8c0.7-0.3,1.8-0.7,0.9-1.8
		s-0.7-0.2-1.4-0.6c-0.6-0.5-0.4-1-0.1-1.5c0.3-0.6,0-1.2,0.3-2.6c0.3-1.4,0.5-3.3-0.2-4.1c-0.6-0.7-0.2-3.1,0.8-2.9
		s2.5,1.6,1.8,1.4c-0.7-0.2-1.4,1.3-0.6,1.5c0.7,0.2,2.3,0.7,2.9,0.2s1-1.5,0.2-2.4c-0.9-0.9-0.7-2.4-0.2-3c0.5-0.6,1.2-0.8,2,0.1
		c0.8,0.9,1.7,0.6,1.7,1.6s1,1.8,1.3,0.2c0.3-1.5,0.6-2.3,1-2.9c0.4-0.6,1-2.3,1.9-2.3c1,0,0.5-0.6,0.5-2.1s1-2.4,1.7-3.3
		c0.6-1,0.8-2.5,1-3.5s1-1.6,2-1.8c1-0.2,1.4,0.5,0.5,1.3c-1,0.8-1.4,1.6-0.5,2.9c0.9,1.3,0.9,2.9,0.4,3.9c-0.5,1-2.7,3.2-1.1,3.3
		c1.6,0.2,1.4,1.4,0.6,2.8s-1.7,3.3-1.2,5.5s0.6,2.9,1.4,3.4c0.9,0.5,0.2,0.6,1-0.2c0.7-0.7,1.1-1.3,1.6,0.4
		c0.5,1.7-0.1,1.3,1.2,0.7c1.3-0.6,1.3-1.3,1.4-2.4c0.1-1,1-1.3,1.4-2.3c0.5-1,0.5-1.6,0.7-2.4c0.2-0.8,1.3-0.9,1.5,1.1
		c0.2,2,0.2,2.8,1.3,2.6c1.1-0.2,0.9-0.6,1.2-0.8c0.2-0.2,0.5,0.2,1,0.7c0.5,0.6,0.8,1,1,0c0.2-1-0.7-1.4-1.5-2
		c-0.8-0.6-1.3-1-1-2.2c0.2-1.2,0.6-1.4,0-2.4c-0.6-1-0.8-0.8-1.1-1.5c-0.3-0.7-0.3-1.8-0.3-3.2s-0.9-2.9,0.1-3
		c1-0.1,1.6,0.7,1.7,2.2c0.2,1.5,0.6,1.9,0.6,3.1s0.2,5.5,1,5.5c0.8,0,1.3-1.1,1.2-2.5c-0.1-1.4-0.6-2.2-0.5-3.9
		c0.2-1.7,0.1-3.3-1.4-5.2c-1.4-2-2.9-3.7-2.9-5.2c0-1.6-1-4.2,0.3-5.8s2.2-3.9,3.7-1.6s1.4,1.4,2,1.9c0.6,0.6,1.3,1.4,1.1,2.3
		c-0.2,1-0.4,1.8,0.4,2.1c0.8,0.3,1.8,1,1.6-0.2c-0.2-1.2-0.2-1-0.5-1.9c-0.3-1,0-1.2-0.7-1.5c-0.7-0.3-0.6-1.9,0.6-0.9
		c1.3,1,1.1,0.9,2.1,1.7c1,0.9,4.5,0.1,2.4-0.8c-2.1-0.9-1.8-1.4-1.8-1.9s-0.4-0.3-1.9-0.6c-1.5-0.3-2.2-0.2-2.7-1s-0.2-1.5-1.2-1.3
		c-1,0.2-0.2-1.3,0.8-1.7c1-0.5,1.7-1.1,3.1-0.8c1.4,0.3,2-0.4,3.5-0.2s2.1,0,2.9-0.9s1.8-0.8,0.2-1.8c-1.5-1-0.6-1-0.6-1.3
		s-0.3-0.2-1.6,0.1s-0.6,1.4-2.3-0.6c-1.7-1.9-2-2.5-2.5-4.1s-1.7-4.9,0.7-6.7c2.5-1.8,3.5-2.7,4.1-3.5c0.6-0.8,1.3-1.8,0.2-2.4
		s0.4-1.8,2.2-1.1c1.8,0.6,2.1,0.3,3,0.2c1-0.1,1,0.3,0.8-1c-0.2-1.4,0.6-2.8,3.3-0.2c2.7,2.6,3.7,1.7,4.9,2.2s2.9,1.3,3.6,2.4
		c0.7,1.1,3.1,1.4,5,0.4c1.9-1,4.9-0.4,7.1,1.2c2.1,1.6,2.3,2,2.5,4.1s1.7,3.6,5.6,3.4c3.9-0.2,4.4-0.1,5.9,2c1.5,2.1,4,1.6,5.2,1.8
		s3.1,1.4,4.5,1.8c1.4,0.4,2.1,1.3,2.9,0.7s1.4-0.6,2.1-0.4c0.7,0.2,1.9,1,1,1.4s-0.2,1.4,1,1.1c1.3-0.2,1.5-0.8,1.4,1
		c-0.2,1.8-0.1,1,0.2,2.1c0.3,1.1,0.4,1.4,1.4,2.6c1,1.3,1.2,1.4,2.1,2.8s1.5,3.1-0.1,3.4c-1.6,0.3-1.8,0.3-2.4,1.8
		c-0.6,1.4-1.5,1.8-2.2,2.5c-0.7,0.6-0.4,2.2,2,4.1c2.4,1.9,4.1,3.4,5.4,4.7s1.7,6,1.9,8.3s0.6,4.1-0.7,5.7c-1.2,1.4-0.8,3.1-0.3,4
		c0.1,0.1,0.2,0.3,0.3,0.4c-5,2.9-1.4,1.9,0.8,2.7c0.4,1.2,1.3,2.8,1.1,3.5c-0.3,1.7-1.4,3.2-1.6,3.2c-1.6,0-1.5,1-1.5,2.4
		c0,0.8-1,1.5-1.3,0.7s-0.2-2-0.8-2.1c-0.6-0.1,0.2-0.6-0.6-0.1s-1.5,0.2-1.3,2.2c0.2,2-1.4,3.1-1.3,5.4c0.2,2.3,1.4,6-1.9,8
		c0,0-2.1,0.5-2.9,2.6c-0.7,2.1-1.9,0.2-3.4,1.3c-1.5,1-4.1,1.8-4.3,4.2s-0.9,2.5-1,3.6c-0.1,1.1,0.2,4.1-0.5,5.2
		c-0.7,1,0.1,3.9,1.5,5.5c1.4,1.6,2.9,3.7,3.9,3.6c1-0.2,3.3-1.7,4.1-0.3c0.8,1.4,1,1.6,1.4,2.4c0.4,0.8,1.2-0.2,1.8-1.2
		c0.6-1,1.7-1.9,2.4-3.5c0.7-1.6,2-2.1,2.9-2.3c0.9-0.2,2.2-3,3.1-5c0.9-2,1.7-5.2,2.5-5.5c0.8-0.3,1.1-2.3,1.4-3.2s0.9-0.2,1.4-1
		c0.5-0.7,0.6-2.2,1.5-2.5c1-0.2,2.3-0.1,3.2-0.3c0.9-0.2,1.1-1.8,1.4-1.9s3.2,0.2,3.7-2s8.3-4.3,12.9,2.9c4.6,7.2,4.6,7.7,5.1,9.5
		c0.5,1.8,0.7,7.4,1.6,9.6c0.9,2.2,4.1,9.1,4.6,15.4c0.5,6.3,1.8,5.6,2.1,7.5s0.4,0.6-0.2,1.4s0.5,1.5,1.4,1.3
		c0.9-0.2,0.6,2.2,0.7,2.9c0.1,0.7,1.1,2.2,2.1,2.9c1,0.6,0.6,4.1-0.2,5c-0.9,1-0.9,4.1-0.7,6.7s0.6,6.8,0.1,8.3s-0.3,4.1-1.4,4.5
		s-2-0.3-2.5-1.6c-0.5-1.3-4.2-2-4.9-1.1c-0.6,0.9-5.6,2.6-3.6,4c2,1.4,0.6,2.5-0.6,3.4s-1.6,0.5-1.4,3.1c0.2,2.6,0.2,2.5,0.5,3.9
		c0.2,1.4-1.2,3.3-4.1,5.1s-6,1.4-6.4,6c-0.4,4.7,1.5,8.7-0.4,9.7c-2.1,1.1-1.6,2.4-1.6,3.2s-0.4,2.5-1.1,2.7
		c-0.7,0.2-1.2,2.3-1,2.6c0.2,0.3-1.3,0.6-2,0.6c-0.7,0.1-0.7-0.2-1.5,1.7c-0.8,1.9-1,2-1.1,2.9c-0.2,1,0.1,0.8-0.7,1.4
		s-0.2,0.5-0.2,0.5L291,189z"/>
	<path id="path1416" class="st0" d="M323.4,20.5c0.4-1.2,0-2.2,0.7-2.8c0.7-0.7,1.8-0.9,1.5,0.3c-0.2,1.2-0.3,1.5-0.6,2.3
		c-0.3,0.9-0.2,1,0,2.1c0.2,1.1-0.1,1.2-0.5,2.1c-0.4,0.9-1.7,2.6-1.9,1.7c-0.2-0.9-0.7-1.3,0.1-1.8s0.8,0.6,1-0.7s0.9-1.8,0.2-1.8
		c-0.7-0.1-1.3-0.2-0.9-0.8C323.4,20.5,323.4,20.5,323.4,20.5z"/>
</g>
</svg>
