<?xml version="1.0" encoding="utf-8"?>
<!-- Generator: Adobe Illustrator 19.1.0, SVG Export Plug-In . SVG Version: 6.00 Build 0)  -->
<svg version="1.1"
	 id="svg2" xmlns:cc="http://creativecommons.org/ns#" xmlns:dc="http://purl.org/dc/elements/1.1/" xmlns:rdf="http://www.w3.org/1999/02/22-rdf-syntax-ns#"
	 xmlns="http://www.w3.org/2000/svg" xmlns:xlink="http://www.w3.org/1999/xlink" x="0px" y="0px" viewBox="103 -103 256 256"
	 style="enable-background:new 103 -103 256 256;" xml:space="preserve">
<style type="text/css">
	.st0{fill:#FFFFFF;enable-background:new    ;}
</style>
<path id="mainsymbolpath" class="st0" d="M230,0.9c0,0,11.4,9.3,11.4,24.5c0,23.2-22.6,41.7-22.6,41.7c-2.2,5.3-7.5,10-12.2,14.9
	l18.5-10.7c3.1,19.2,9.8,33.5,18.5,45.2c-2-5.7-6-14.5-4.3-16.7c0.8-1,12,16.8,12,16.8c-0.7-3.7-1.7-7-3.5-10.7
	c4,4.7,7.6,9.8,10.8,15c-3.4-21.6-8-43.8-4.5-61.9c10.9-2.5,21.1-3.8,31.5-5.2c1.5-19.1,16-27.7,30-36.7
	c-17.6,3.2-35.2,6.6-54.3,14.3c3-9.6,6.9-17.6,9.7-24.5c22.1-10.4,43.6-15.1,65.1-20.1c-29.1,0.5-40.5,0.1-45-3.5
	c-2.5-1.9,3.5-8.3,3.5-8.3c-3,0.2-5.7,1.6-8.3,3.9c2.6-4.4,6.5-6.6,10.4-8.9C275.7-25.4,253.8-16.1,230,0.9L230,0.9z M125.4,72.8
	c16.3-6.1,69.2-25.2,69.2-46.6c0-13-30.3-14.6-30.3-37.9c0-34.1,68.5-51.7,92.9-56.8c-5.8,2.5-11.5,5.8-17.3,9.2
	c7.2-2.5,13.7-4.4,18.8-5.1c-1.8,0.8-3.2,1.8-4.6,2.8c11.2-2.7,18-2.6,25.2-2.8c-17.8,3.8-77.5,24.7-77.5,45.8s33,12.7,33,47.3
	c0,40.2-67.5,64.8-67.5,64.8s9.2-9.3,8-12.1c-1.7-3.8-19.5-1.7-28.2-1c11.1-3.5,22.4-6.9,31-13.2C159.5,72.7,141.9,74.1,125.4,72.8z
	"/>
</svg>
