<?xml version="1.0" encoding="utf-8"?>
<!-- Generator: Adobe Illustrator 19.1.0, SVG Export Plug-In . SVG Version: 6.00 Build 0)  -->
<svg version="1.1" id="Layer_1" xmlns="http://www.w3.org/2000/svg" xmlns:xlink="http://www.w3.org/1999/xlink" x="0px" y="0px"
	 viewBox="4.3 0.1 41.4 49.6" style="enable-background:new 4.3 0.1 41.4 49.6;" xml:space="preserve">
<style type="text/css">
	.st0{fill:#2A2929;stroke:#FAFAFA;stroke-width:2;stroke-miterlimit:10;}
	.st1{fill:#FFFFFF;}
</style>
<g>
	<g>
		<polygon class="st0" points="44.7,36.8 25,48.6 5.3,36.8 5.3,13.1 25,1.3 44.7,13.1 		"/>
	</g>
	<g>
		<g>
			<polygon class="st1" points="34.8,30.3 20.2,30.3 14.2,16.3 10.4,16.3 10.4,14.5 15.3,14.5 21.4,28.5 34.8,28.5 			"/>
		</g>
		<path class="st1" d="M26.1,34.6c0,1.4-1.2,2.6-2.6,2.6s-2.6-1.2-2.6-2.6s1.2-2.6,2.6-2.6S26.1,33.2,26.1,34.6z"/>
		<path class="st1" d="M34.8,34.6c0,1.4-1.2,2.6-2.6,2.6c-1.4,0-2.6-1.2-2.6-2.6s1.2-2.6,2.6-2.6C33.7,32.1,34.8,33.2,34.8,34.6z"/>
		<g>
			<polygon class="st1" points="37.6,19.8 38.3,18.1 19.1,18.1 19.8,19.8 			"/>
			<polygon class="st1" points="21.9,25 22.6,26.8 34.8,26.8 35.5,25 			"/>
			<polygon class="st1" points="37,21.6 20.5,21.6 21.2,23.3 36.2,23.3 			"/>
		</g>
	</g>
</g>
</svg>
