<?xml version="1.0" encoding="utf-8"?>
<!-- Generator: Adobe Illustrator 19.1.0, SVG Export Plug-In . SVG Version: 6.00 Build 0)  -->
<svg version="1.1" id="Layer_1" xmlns="http://www.w3.org/2000/svg" xmlns:xlink="http://www.w3.org/1999/xlink" x="0px" y="0px"
	 viewBox="0 0 141 92.4" style="enable-background:new 0 0 141 92.4;" xml:space="preserve">
<style type="text/css">
	.st0{fill:#2A2929;stroke:#00E99F;stroke-width:3;stroke-miterlimit:10;}
	.st1{opacity:0.7;fill:#2A2929;stroke:#00E99F;stroke-width:3;stroke-miterlimit:10;}
	.st2{opacity:0.8;fill:#2A2929;stroke:#00E99F;stroke-width:3;stroke-miterlimit:10;}
	.st3{opacity:0.6;fill:#2A2929;stroke:#00E99F;stroke-width:3;stroke-miterlimit:10;}
	.st4{fill:#999999;}
	.st5{font-family:'Campton-Light';}
	.st6{font-size:8px;}
	.st7{font-family:'Campton-Bold';}
	.st8{fill:#00E99F;}
	.st9{font-size:5px;}
	.st10{font-size:6px;}
	.st11{opacity:0.8;fill:#00E99F;}
	.st12{opacity:0.6;fill:#00E99F;}
	.st13{opacity:0.7;fill:#00E99F;}
</style>
<g>
	<polygon class="st0" points="43.5,37.7 22.5,49.7 1.5,37.7 1.5,13.7 22.5,1.7 43.5,13.7 	"/>
	<polygon class="st1" points="115.5,78.7 94.5,90.7 73.5,78.7 73.5,54.7 94.5,42.7 115.5,54.7 	"/>
	<polygon class="st2" points="67.5,78.7 46.5,90.7 25.5,78.7 25.5,54.7 46.5,42.7 67.5,54.7 	"/>
	<polygon class="st3" points="139.5,37.7 118.5,49.7 97.5,37.7 97.5,13.7 118.5,1.7 139.5,13.7 	"/>
	<text transform="matrix(1 0 0 1 51.2109 29.2492)"><tspan x="0" y="0" class="st4 st5 st6">MY </tspan><tspan x="14.3" y="0" class="st4 st7 st6">WORK</tspan></text>
	<text transform="matrix(1 0 0 1 9.2569 23.5025)" class="st8 st7 st9">WEBSITES</text>
	<text transform="matrix(1 0 0 1 15.9615 30.9734)" class="st8 st5 st10">40%</text>
	<text transform="matrix(1 0 0 1 39.5251 64.1152)" class="st11 st7 st9">APPS</text>
	<text transform="matrix(1 0 0 1 109.7529 23.5026)" class="st12 st7 st9">LOGOS</text>
	<text transform="matrix(1 0 0 1 80.329 64.1147)" class="st13 st7 st9">ANIMATION</text>
	<text transform="matrix(1 0 0 1 40.6745 71.3948)" class="st11 st5 st10">30%</text>
	<text transform="matrix(1 0 0 1 88.7588 71.3948)" class="st13 st5 st10">20%</text>
	<text transform="matrix(1 0 0 1 112.3216 30.9735)" class="st12 st5 st10">10%</text>
</g>
</svg>
